HIERARCHY
ROOT Hips
{
	OFFSET -0.001795 -0.223333 0.028219
	CHANNELS 6 Xposition Yposition Zposition Zrotation Yrotation Xrotation 
	JOINT LeftUpLeg
	{
		OFFSET 0.069520 -0.091406 -0.006815
		CHANNELS 3 Zrotation Yrotation Xrotation
		JOINT LeftLeg
		{
			OFFSET 0.034277 -0.375199 -0.004496
			CHANNELS 3 Zrotation Yrotation Xrotation
			JOINT LeftFoot
			{
				OFFSET -0.013596 -0.397961 -0.043693
				CHANNELS 3 Zrotation Yrotation Xrotation
				JOINT LeftToe
				{
					OFFSET 0.026358 -0.055791 0.119288
					CHANNELS 3 Zrotation Yrotation Xrotation
					End Site
					{
						OFFSET 0.000000 0.000000 0.000000
					}
				}
			}
		}
	}
	JOINT RightUpLeg
	{
		OFFSET -0.067670 -0.090522 -0.004320
		CHANNELS 3 Zrotation Yrotation Xrotation
		JOINT RightLeg
		{
			OFFSET -0.038290 -0.382569 -0.008850
			CHANNELS 3 Zrotation Yrotation Xrotation
			JOINT RightFoot
			{
				OFFSET 0.015774 -0.398415 -0.042312
				CHANNELS 3 Zrotation Yrotation Xrotation
				JOINT RightToe
				{
					OFFSET -0.025372 -0.048144 0.123348
					CHANNELS 3 Zrotation Yrotation Xrotation
					End Site
					{
						OFFSET 0.000000 0.000000 0.000000
					}
				}
			}
		}
	}
	JOINT Spine
	{
		OFFSET -0.002533 0.108963 -0.026696
		CHANNELS 3 Zrotation Yrotation Xrotation
		JOINT Spine1
		{
			OFFSET 0.005487 0.135180 0.001092
			CHANNELS 3 Zrotation Yrotation Xrotation
			JOINT Spine2
			{
				OFFSET 0.001457 0.052922 0.025425
				CHANNELS 3 Zrotation Yrotation Xrotation
				JOINT Neck
				{
					OFFSET -0.002778 0.213870 -0.042857
					CHANNELS 3 Zrotation Yrotation Xrotation
					JOINT Head
					{
						OFFSET 0.005152 0.064970 0.051349
						CHANNELS 3 Zrotation Yrotation Xrotation
						End Site
						{
							OFFSET 0.000000 0.000000 0.000000
						}
					}
				}
				JOINT LeftShoulder
				{
					OFFSET 0.078845 0.121749 -0.034090
					CHANNELS 3 Zrotation Yrotation Xrotation
					JOINT LeftArm
					{
						OFFSET 0.090977 0.030469 -0.008868
						CHANNELS 3 Zrotation Yrotation Xrotation
						JOINT LeftForeArm
						{
							OFFSET 0.259612 -0.012772 -0.027456
							CHANNELS 3 Zrotation Yrotation Xrotation
							JOINT LeftHand
							{
								OFFSET 0.249234 0.008986 -0.001171
								CHANNELS 3 Zrotation Yrotation Xrotation
								End Site
								{
									OFFSET 0.000000 0.000000 0.000000
								}
							}
						}
					}
				}
				JOINT RightShoulder
				{
					OFFSET -0.081759 0.118833 -0.038615
					CHANNELS 3 Zrotation Yrotation Xrotation
					JOINT RightArm
					{
						OFFSET -0.096012 0.032551 -0.009143
						CHANNELS 3 Zrotation Yrotation Xrotation
						JOINT RightForeArm
						{
							OFFSET -0.253742 -0.013329 -0.021401
							CHANNELS 3 Zrotation Yrotation Xrotation
							JOINT RightHand
							{
								OFFSET -0.255298 0.007772 -0.005559
								CHANNELS 3 Zrotation Yrotation Xrotation
								End Site
								{
									OFFSET 0.000000 0.000000 0.000000
								}
							}
						}
					}
				}
			}
		}
	}
}
MOTION
Frames: 13
Frame Time: 0.050000
0.022240 0.921801 -0.002090 1.917363 8.634245 5.947338 10.505924 -0.533017 -10.124545 -7.809872 0.852561 7.114344 19.250778 31.573865 23.122870 0.000000 0.000000 0.000000 -11.442148 -0.436258 -26.697820 3.517632 -0.647142 18.561009 8.967792 10.332145 17.368962 0.000000 0.000000 0.000000 12.046124 -8.042478 40.371151 -1.405586 1.078050 -24.864389 4.990073 -2.251825 23.147088 10.561487 -5.293962 -20.577616 0.000000 0.000000 0.000000 6.898151 -22.924287 6.825951 -22.721529 -35.660761 1.717506 9.461501 -48.061400 -2.346235 0.000000 0.000000 0.000000 14.616891 25.026907 12.065365 38.550924 56.543176 13.149910 -0.075620 43.433737 2.125301 0.000000 0.000000 0.000000 
0.022900 0.921948 -0.003028 1.855637 9.029352 6.029852 10.574624 -0.552604 -10.801095 -7.841320 0.860884 7.875016 19.048100 31.407024 22.968828 0.000000 0.000000 0.000000 -11.443988 -0.479499 -26.817990 3.482335 -0.660470 18.679582 8.830874 10.068926 17.493695 0.000000 0.000000 0.000000 11.954829 -8.053582 40.254837 -0.705676 0.928450 -24.684077 5.111624 -2.218970 22.957264 10.273586 -5.168506 -20.086556 0.000000 0.000000 0.000000 7.371266 -22.523366 6.650356 -22.692715 -36.079858 1.767401 8.445885 -49.401171 -1.967781 0.000000 0.000000 0.000000 14.493605 25.540221 12.342929 38.697202 56.768265 13.360097 -1.538338 41.776698 1.479058 0.000000 0.000000 0.000000 
0.023755 0.922273 -0.003909 1.830526 9.237792 6.093971 10.585080 -0.563698 -11.069714 -7.895413 0.865868 8.043205 18.935294 31.308386 22.902140 0.000000 0.000000 0.000000 -11.426725 -0.503455 -27.031451 3.353516 -0.639348 18.930380 8.797400 9.908934 17.721189 0.000000 0.000000 0.000000 11.877285 -8.075412 40.315853 -0.791421 0.952489 -24.987477 5.882746 -2.538438 22.957166 9.638948 -4.899178 -19.592244 0.000000 0.000000 0.000000 7.291552 -22.163909 6.563853 -22.822085 -36.593930 1.884292 7.535999 -52.010475 -1.572371 0.000000 0.000000 0.000000 14.436297 26.017479 12.509287 38.364926 56.627677 13.124830 -2.048368 40.237796 1.190213 0.000000 0.000000 0.000000 
0.024840 0.922499 -0.004811 1.765409 9.647957 6.122148 10.535283 -0.581008 -11.212335 -7.771309 0.833769 7.988443 18.703271 31.111920 22.621707 0.000000 0.000000 0.000000 -11.486853 -0.553989 -26.935643 3.380519 -0.665627 18.796460 8.650687 9.647501 17.831092 0.000000 0.000000 0.000000 11.966788 -8.170569 40.222373 -0.348218 0.861605 -24.878656 6.042899 -2.669053 22.797630 9.263231 -4.613494 -19.793579 0.000000 0.000000 0.000000 7.198564 -21.807547 6.489175 -23.153832 -36.874177 2.000798 6.519786 -54.349385 -1.108451 0.000000 0.000000 0.000000 14.040669 26.565526 12.701415 38.135489 56.545746 13.012406 -3.004701 38.804574 0.792999 0.000000 0.000000 0.000000 
0.026015 0.922641 -0.005807 1.687243 9.822486 6.065745 10.722686 -0.575873 -11.008079 -8.083673 0.865510 7.548698 18.615593 31.042955 22.415322 0.000000 0.000000 0.000000 -11.526950 -0.575704 -26.831123 3.420432 -0.683042 18.682784 8.611584 9.524542 17.977205 0.000000 0.000000 0.000000 12.348330 -8.335909 40.092071 -0.447596 0.883342 -24.665898 6.238501 -2.870560 22.492618 9.207424 -4.645682 -19.466515 0.000000 0.000000 0.000000 6.873748 -21.618133 6.491828 -23.682029 -37.189293 2.189970 5.982753 -56.255116 -0.796091 0.000000 0.000000 0.000000 13.658803 26.738208 12.651627 38.001002 56.422307 12.924839 -2.643751 37.927383 0.853587 0.000000 0.000000 0.000000 
0.027023 0.922529 -0.006873 1.727220 9.973942 6.171722 10.649036 -0.586870 -11.091694 -8.144753 0.864604 7.343408 18.560708 31.015384 22.236123 0.000000 0.000000 0.000000 -11.750318 -0.643836 -26.819382 3.574052 -0.729211 18.445846 8.557823 9.420593 18.039395 0.000000 0.000000 0.000000 12.632722 -8.450217 39.921971 -0.389507 0.870074 -24.513510 6.138345 -2.945715 22.334406 9.461197 -4.736680 -19.818243 0.000000 0.000000 0.000000 6.493460 -21.452841 6.514724 -24.320751 -37.148333 2.326949 5.381857 -57.967738 -0.450989 0.000000 0.000000 0.000000 13.799087 26.541602 12.590510 37.815988 56.460739 12.854729 -2.137396 37.651062 1.008325 0.000000 0.000000 0.000000 
0.027772 0.922236 -0.007841 1.644987 10.037194 6.194919 10.651145 -0.587829 -10.967378 -8.088709 0.846202 6.946276 18.563550 31.046167 22.018016 0.000000 0.000000 0.000000 -11.785814 -0.653405 -26.731997 3.670991 -0.752031 18.154854 8.518823 9.368998 18.035305 0.000000 0.000000 0.000000 12.634297 -8.434068 39.789898 -0.017216 0.786520 -24.451888 6.244884 -3.029032 22.277026 9.386038 -4.653226 -20.039559 0.000000 0.000000 0.000000 6.027429 -21.291947 6.543623 -25.397183 -37.072467 2.550043 4.395525 -59.020909 0.146673 0.000000 0.000000 0.000000 13.379056 26.682084 12.548027 37.569208 56.326511 12.691214 -1.835312 38.139122 1.120162 0.000000 0.000000 0.000000 
0.028297 0.921963 -0.008688 1.683530 10.102471 6.279331 10.715088 -0.589236 -10.933008 -8.338427 0.870368 6.617439 18.557275 31.059488 21.881293 0.000000 0.000000 0.000000 -11.834063 -0.667809 -26.704501 3.593058 -0.724228 17.910947 8.466885 9.334005 17.954207 0.000000 0.000000 0.000000 12.785494 -8.453607 39.554000 -0.178728 0.821154 -24.181335 6.392834 -3.274648 22.184493 9.110624 -4.522982 -19.994847 0.000000 0.000000 0.000000 5.233798 -21.231897 6.653226 -26.039437 -36.940761 2.669905 3.485315 -59.585081 0.743831 0.000000 0.000000 0.000000 13.535614 26.720382 12.555944 36.910513 56.295583 12.334946 -1.513807 38.159774 1.212723 0.000000 0.000000 0.000000 
0.028703 0.921708 -0.009518 1.720110 9.903868 6.282439 10.703266 -0.583801 -10.970483 -8.473987 0.895730 6.670507 18.708600 31.217336 21.918935 0.000000 0.000000 0.000000 -11.726945 -0.628334 -26.818459 3.302589 -0.630561 17.940283 8.544202 9.460911 17.923213 0.000000 0.000000 0.000000 12.817868 -8.462826 39.680411 -0.591012 0.910900 -24.233557 6.341870 -3.251649 22.559435 9.448043 -4.685103 -20.454725 0.000000 0.000000 0.000000 5.137462 -21.430626 6.718979 -26.481656 -36.517766 2.661878 2.756793 -59.930546 1.182599 0.000000 0.000000 0.000000 13.937550 26.381366 12.481597 35.755332 56.637272 11.835948 -1.721783 38.238626 1.152360 0.000000 0.000000 0.000000 
0.029197 0.921769 -0.010334 1.606472 9.664955 6.217350 10.950623 -0.565588 -10.882983 -8.794158 0.944183 6.598983 18.875156 31.376281 22.026646 0.000000 0.000000 0.000000 -11.609100 -0.574724 -26.799103 3.272221 -0.605872 17.789084 8.667499 9.565956 18.080023 0.000000 0.000000 0.000000 12.931798 -8.509990 39.847738 -0.947594 0.986206 -24.040249 6.449160 -3.172611 22.471563 9.695473 -4.905955 -20.146511 0.000000 0.000000 0.000000 4.952924 -21.790495 6.854913 -26.872598 -35.822399 2.615522 0.602176 -60.799021 2.474292 0.000000 0.000000 0.000000 14.002487 26.118662 12.350248 35.002581 56.932524 11.568800 -1.956336 38.175490 1.063818 0.000000 0.000000 0.000000 
0.029736 0.921761 -0.011227 1.596833 9.435327 6.176415 11.088374 -0.553005 -10.940156 -9.123323 1.000592 6.751596 19.037823 31.532881 22.150669 0.000000 0.000000 0.000000 -11.385239 -0.500898 -26.850466 2.857118 -0.474561 17.757015 8.770982 9.701468 18.115707 0.000000 0.000000 0.000000 13.052387 -8.582494 40.105201 -1.018614 0.998450 -24.014502 6.104052 -2.786335 22.486888 10.429825 -5.411792 -19.756372 0.000000 0.000000 0.000000 5.034647 -22.039639 6.912788 -26.991237 -35.005785 2.453274 -2.265118 -62.078004 4.201122 0.000000 0.000000 0.000000 14.519149 25.561259 12.255089 33.766894 57.326685 11.090903 -2.392690 37.469015 0.902724 0.000000 0.000000 0.000000 
0.030334 0.922008 -0.012133 1.669052 9.403802 6.187848 11.137698 -0.551360 -11.026582 -9.435147 1.045160 6.799263 19.056024 31.541749 22.240719 0.000000 0.000000 0.000000 -11.306349 -0.481863 -26.910100 2.507574 -0.372848 17.760252 8.810784 9.718885 18.209559 0.000000 0.000000 0.000000 13.246239 -8.675181 40.161822 -1.294167 1.059179 -23.939995 5.975319 -2.747548 22.485771 10.774005 -5.630824 -19.731779 0.000000 0.000000 0.000000 5.277271 -22.351157 6.965351 -26.707759 -34.616422 2.330444 -4.257947 -62.677540 5.438251 0.000000 0.000000 0.000000 14.264740 25.222267 12.033952 33.048653 57.986811 10.959844 -2.877138 36.601556 0.714531 0.000000 0.000000 0.000000 
0.030896 0.921865 -0.012989 1.707101 9.550905 6.023354 11.181964 -0.549269 -10.873849 -9.653699 1.066644 6.712211 18.968024 31.469802 22.053315 0.000000 0.000000 0.000000 -11.308342 -0.490330 -26.689666 2.344841 -0.331700 17.687938 8.751462 9.674523 18.131146 0.000000 0.000000 0.000000 13.290206 -8.770181 40.391370 -1.149934 1.030723 -23.927378 5.894328 -2.826677 22.362422 10.960204 -5.854632 -19.236884 0.000000 0.000000 0.000000 5.273587 -22.378278 6.970513 -26.213402 -34.391679 2.201457 -5.449125 -62.807344 6.162969 0.000000 0.000000 0.000000 14.099298 25.189684 11.968836 32.292416 58.240614 10.670082 -3.222669 35.716584 0.568541 0.000000 0.000000 0.000000 
